<svg width="145" height="109" viewBox="0 0 145 109" fill="none" xmlns="http://www.w3.org/2000/svg">
<path d="M140.732 106.539C145.422 101.849 141.59 82.7077 140.302 77.4894C136.506 62.1125 120.854 46.7005 103.669 49.1556C92.8692 50.6983 84.4173 67.159 79.7707 75.7722C74.8829 84.8326 94.3193 80.9715 97.5152 78.7773C103.356 74.7671 113.149 63.2214 110.609 55.0942C107.849 46.2639 90.7046 36.815 82.9189 33.7007C60.4229 24.7023 34.9018 22.8787 11.4403 17.3157C8.58653 16.639 -0.007071 15.0977 2.92581 15.0977" stroke="#FF6633" stroke-width="4" stroke-linecap="round"/>
<path d="M10.6523 30.5526C10.6523 24.2136 10.3187 21.5616 6.28771 16.6003C5.92019 16.148 2.11623 12.6453 4.21276 12.522C9.16129 12.2309 13.8468 13.2725 18.3081 10.447C22.7852 7.61159 25.9762 3.53939 31.2587 2.21875" stroke="#FF6633" stroke-width="4" stroke-linecap="round"/>
</svg>
