<svg xmlns="http://www.w3.org/2000/svg" width="197" height="197" fill="none"><mask id="a" width="197" height="197" x="0" y="0" maskUnits="userSpaceOnUse" style="mask-type:alpha"><path fill="#000" d="M155.5 57.2h-15.6V41.6L98.7.4 57.5 41.6v15.6H42L.7 98.4 42 139.5h15.6v15.6l41.2 41.2 41.2-41.2v-15.6h15.6l41.2-41.1-41.2-41.2Z"/></mask><g mask="url(#a)"><path fill="#DCC169" d="M1 0h196v196H1z"/><path fill="#29241B" d="M71.5 128c-4 0-7.7-.8-11-2.3a19.4 19.4 0 0 1-7.8-6.4A16.3 16.3 0 0 1 50 110c0-2.3 1-3.9 2.8-4.8 2-1 4.6-1.4 8-1.4l-.2 3.7c0 3.5 1 6.2 2.8 8.1 1.9 2 4.6 2.8 8.1 2.8s6.2-1 8-3c2-2 3-4.9 3-8.7V80.1h-8.2c-2.6 0-4.4-.8-5.7-2.3-1.2-1.5-1.8-3.9-1.8-7H88c1.4 0 2.7.4 3.7 1.4 1 .9 1.5 2 1.5 3.5v31.1c0 4-1 7.7-2.8 11a19.6 19.6 0 0 1-7.7 7.5c-3.3 1.8-7 2.7-11.2 2.7ZM124.3 128c-4.8 0-9-.6-12.6-1.8a18.8 18.8 0 0 1-8.3-5 11.5 11.5 0 0 1-2.8-7.7c0-4.4 3-6.6 9-6.6.1 4.1 1.5 7.2 4 9.3 2.6 2.1 6.2 3.2 10.8 3.2a17 17 0 0 0 8.9-2 6.3 6.3 0 0 0 3.1-5.6c0-1.5-.4-2.8-1.2-3.8-.8-1-2.1-1.9-4-2.6a52 52 0 0 0-8.5-2.4 60.4 60.4 0 0 1-12.5-4.2 16 16 0 0 1-6.6-5.4c-1.3-2.1-2-4.8-2-8 0-3 .9-5.7 2.7-8 1.8-2.4 4.4-4.2 7.6-5.5 3.4-1.3 7.2-1.9 11.5-1.9 4.1 0 7.8.6 11 1.7 3.3 1 5.9 2.6 7.7 4.6 1.9 2 2.8 4.3 2.8 6.9 0 4-2.9 6-8.6 6.2-.3-3.7-1.5-6.4-3.6-8.2-2-1.7-5.1-2.6-9.3-2.6a16 16 0 0 0-8.3 1.8 5.6 5.6 0 0 0-3 5c0 1.5.4 2.8 1.2 3.8.8 1 2 1.9 3.8 2.6 1.8.7 4.3 1.4 7.6 2.2 5.5 1.2 9.9 2.6 13.1 4.2 3.2 1.5 5.6 3.4 7 5.6a14 14 0 0 1 2.2 8c0 3.2-1 6.1-2.8 8.6a17.6 17.6 0 0 1-8 5.7c-3.3 1.3-7.3 1.9-11.9 1.9Z"/></g></svg>