<svg width="512" height="512" viewBox="0 0 512 512" fill="none" xmlns="http://www.w3.org/2000/svg">
<rect width="512" height="512" rx="64" fill="#FF6633"/>
<path d="M361.64 215.187C359.792 216.874 359.792 219.609 361.64 221.287L384.679 242.247V242.265L399.87 256.105C409.366 264.748 414.7 276.472 414.7 288.698V367.442C414.7 394.128 390.927 415.772 361.611 415.772H270.263C290.407 406.819 296.683 386.251 297.836 378.875V358.881C297.836 349.144 306.208 341.185 316.761 340.656C317.132 340.629 317.513 340.62 317.894 340.62C322.894 340.62 327.466 342.288 330.981 345.051L344.343 357.213C346.191 358.899 349.191 358.899 351.039 357.213C352.887 355.526 352.887 352.8 351.039 351.114L328.152 330.281L312.96 316.441C303.465 307.798 298.131 296.074 298.131 283.848V228.781C298.131 216.546 303.227 204.766 312.399 195.814L414.7 96V210.693C414.7 210.838 414.7 210.975 414.69 211.13C414.481 219.974 407.766 227.349 398.728 229.474C397.023 229.875 395.242 230.085 393.403 230.085C388.175 230.085 383.384 228.371 379.679 225.517L377.126 223.183L368.345 215.187C366.497 213.501 363.487 213.501 361.64 215.187Z" fill="white"/>
<path d="M288.621 228.783V371C288.621 395.725 266.601 415.774 239.437 415.774H97L159.051 355.227C167.633 346.849 179.529 341.98 192.072 341.643H241.552C244.161 341.643 246.285 339.71 246.285 337.331C246.285 334.951 244.161 333.018 241.552 333.018H226.589C218.322 332.426 211.559 326.937 209.807 319.744C209.512 318.55 209.359 317.31 209.359 316.033C209.359 311.73 210.769 308.129 213.159 304.774C215.883 300.963 219.188 296.869 222.35 293.45L288.621 228.783Z" fill="white"/>
</svg>
