<svg xmlns="http://www.w3.org/2000/svg" width="804" height="350" fill="none"><path fill="#000" d="M0 196.2h110.3v110.3H0V196.2ZM365.4 196.2h110.3L365.4 306.5V196.2Z"/><path fill="#000" d="M365.4 196.2h110.3L365.4 306.5V196.2ZM52.8 138.7a48.4 48.4 0 0 1-46.5-27.3A66.2 66.2 0 0 1 0 82a65 65 0 0 1 6.5-29.6 48.2 48.2 0 0 1 18.2-20 52.5 52.5 0 0 1 28-7.3c8.9 0 16.8 1.6 23.7 5A40.6 40.6 0 0 1 100 64.5H75.2c-1-5.4-3.4-9.8-7.2-13.3a20.7 20.7 0 0 0-15-5.4c-5.3 0-10 1.4-14 4.3-4 2.8-7.1 6.9-9.4 12.2a49.7 49.7 0 0 0-3.3 19c0 7.6 1.1 14 3.3 19.4 2.2 5.4 5.3 9.5 9.3 12.5 4 2.8 8.7 4.3 14.1 4.3 3.8 0 7.3-.8 10.3-2.2 3-1.5 5.6-3.6 7.6-6.4 2.1-2.7 3.5-6.1 4.3-10H100a40.8 40.8 0 0 1-23.1 34.8c-6.8 3.2-14.9 5-24.1 5ZM117.3 136.6V26.4h25.2v18.4h1.1a27.5 27.5 0 0 1 27.2-20 60 60 0 0 1 9.3.7v24a48.2 48.2 0 0 0-12-1.5c-4.8 0-9 1-12.8 3a22.6 22.6 0 0 0-12 20.8v64.8h-26ZM237.6 138.7c-11 0-20.6-2.3-28.7-6.9a46.6 46.6 0 0 1-18.4-19.6 65.8 65.8 0 0 1-6.4-30c0-11.4 2.1-21.4 6.4-30A48.8 48.8 0 0 1 236.2 25c6.8 0 13.2 1 19.2 3.3 6.1 2.1 11.5 5.5 16.1 10a47 47 0 0 1 11 17.4c2.7 7 4 15.3 4 25v7.9h-90.2V71h65.4c0-5-1.2-9.4-3.3-13.3-2-4-5-7-8.8-9.2-3.7-2.3-8-3.4-13-3.4-5.3 0-10 1.3-14 3.9-4 2.5-7.2 5.8-9.4 10a28.9 28.9 0 0 0-3.4 13.6v15.2c0 6.4 1.2 12 3.5 16.5a25 25 0 0 0 9.9 10.5c4.2 2.4 9 3.6 14.7 3.6 3.8 0 7.2-.5 10.3-1.6 3-1 5.7-2.7 8-4.8a20 20 0 0 0 5-7.8l24.3 2.7c-1.5 6.4-4.5 12-8.8 16.8a42.7 42.7 0 0 1-16.3 11 62.6 62.6 0 0 1-22.8 4ZM336.2 138.8a46 46 0 0 1-18.9-3.7c-5.5-2.6-10-6.3-13.2-11.2-3.2-5-4.8-11-4.8-18.2a31 31 0 0 1 3.5-15.5c2.3-4 5.4-7.3 9.4-9.7 4-2.5 8.4-4.3 13.4-5.5a109 109 0 0 1 15.5-2.8l15.8-1.8c4-.6 6.9-1.5 8.7-2.6 1.9-1.2 2.8-3 2.8-5.5v-.5c0-5.4-1.6-9.6-4.8-12.5-3.2-3-7.8-4.5-13.8-4.5-6.4 0-11.5 1.4-15.2 4.2-3.7 2.8-6.2 6-7.4 9.8l-24.3-3.4a38.7 38.7 0 0 1 25.6-27 68.7 68.7 0 0 1 37-1.6c5.2 1.3 10 3.3 14.4 6.2a31 31 0 0 1 10.5 11.5c2.6 5 4 11 4 18.3v73.8h-25v-15.2h-.9a31.7 31.7 0 0 1-17.3 15 43 43 0 0 1-15 2.4Zm6.7-19c5.3 0 9.8-1.1 13.6-3.2 3.8-2 6.8-4.8 8.8-8.3 2.1-3.4 3.2-7.2 3.2-11.3V84c-.8.7-2.2 1.4-4.2 2a198.9 198.9 0 0 1-19.7 3.5c-3.8.5-7.3 1.3-10.3 2.5-3.1 1.2-5.5 2.9-7.3 5a12.3 12.3 0 0 0-2.6 8.2c0 4.8 1.7 8.4 5.2 10.9 3.5 2.4 8 3.6 13.3 3.6ZM471.5 26.4v20H408v-20h63.4ZM423.8 0h26v103.4c0 3.5.5 6.2 1.5 8 1.1 1.9 2.5 3.1 4.3 3.8 1.8.7 3.7 1 5.9 1a25.4 25.4 0 0 0 7.6-1l4.4 20.3a58.1 58.1 0 0 1-15.3 2.6c-6.5.2-12.4-.8-17.6-3a27.3 27.3 0 0 1-12.4-10.2c-3-4.5-4.5-10.3-4.4-17.2V0ZM610.7 136.6V26.4H636v18.4h1.2a27.5 27.5 0 0 1 27.2-20 60 60 0 0 1 9.3.7v24a48.2 48.2 0 0 0-12-1.5c-4.8 0-9 1-12.8 3a22.6 22.6 0 0 0-12 20.8v64.8h-26ZM773.9 55.5l-23.7 2.6a19 19 0 0 0-10.1-11.8 24 24 0 0 0-10.2-2c-5.4 0-10 1.2-13.6 3.5-3.7 2.4-5.5 5.4-5.4 9.2 0 3.2 1.1 5.8 3.5 7.8a30 30 0 0 0 12 5l18.9 4a47.5 47.5 0 0 1 23.2 10.6 25.5 25.5 0 0 1 7.7 19.2c0 7-2 13-6 18.3-4 5.3-9.6 9.4-16.6 12.4-7.1 3-15.2 4.4-24.4 4.4a56.6 56.6 0 0 1-32.6-8.4 34 34 0 0 1-14.7-23.8l25.3-2.4c1.2 5 3.6 8.7 7.3 11.2 3.8 2.6 8.6 3.8 14.6 3.8a26 26 0 0 0 14.9-3.8c3.7-2.5 5.6-5.6 5.6-9.4 0-3.1-1.2-5.7-3.6-7.8-2.4-2-6.2-3.6-11.2-4.7l-18.8-4a44.7 44.7 0 0 1-23.5-11c-5-5.3-7.6-12-7.5-20 0-6.8 1.8-12.7 5.5-17.7 3.8-5 9-8.9 15.7-11.6a61 61 0 0 1 23.3-4.1c13 0 23.1 2.7 30.5 8.2 7.5 5.5 12.1 13 13.9 22.3ZM180.7 350a68 68 0 0 1-24-3.8c-6.7-2.5-12-5.8-16.2-10-4-4.3-6.8-9-8.4-14l23.4-5.7c1 2.2 2.5 4.3 4.6 6.4 2 2.1 4.7 4 8 5.3a34 34 0 0 0 13 2.1c7.4 0 13.5-1.7 18.3-5.3 4.9-3.6 7.3-9.4 7.3-17.5v-21h-1.3a36.8 36.8 0 0 1-5.9 8.3c-2.5 2.9-5.9 5.2-10.1 7.1a45.3 45.3 0 0 1-38.7-3c-6.9-4-12.3-10-16.4-18-4-8-6-18-6-30a70 70 0 0 1 6-30.6 42.2 42.2 0 0 1 55.4-22.2c4.2 2.1 7.5 4.7 10 7.8a43 43 0 0 1 5.7 8.5h1.4v-18.2h25.6v112c0 9.4-2.2 17.2-6.7 23.4a40.5 40.5 0 0 1-18.4 13.8c-7.8 3-16.7 4.6-26.6 4.6Zm.2-65.6c5.5 0 10.2-1.3 14-4 4-2.7 6.9-6.5 9-11.5 2-5 3-11 3-18.1 0-7-1-13-3-18.2a26 26 0 0 0-8.8-12.1c-3.9-3-8.6-4.4-14.2-4.4-5.8 0-10.6 1.5-14.5 4.5-3.8 3-6.8 7.2-8.7 12.4-2 5.2-3 11.2-3 17.8a49 49 0 0 0 3 17.7c2 5 5 9 8.8 11.8 4 2.8 8.7 4.1 14.4 4.1ZM286.7 308.6a46 46 0 0 1-18.9-3.7c-5.5-2.6-9.9-6.3-13.2-11.2-3.2-5-4.8-11-4.8-18.2a31 31 0 0 1 3.5-15.4c2.3-4.1 5.4-7.4 9.4-9.8 4-2.4 8.4-4.3 13.4-5.5 5-1.3 10.2-2.2 15.6-2.8a612 612 0 0 0 15.7-1.8c4-.6 6.9-1.4 8.7-2.6 1.9-1.2 2.8-3 2.8-5.5v-.4c0-5.5-1.6-9.6-4.8-12.6-3.2-3-7.8-4.4-13.8-4.4-6.4 0-11.4 1.3-15.2 4.1-3.7 2.8-6.1 6-7.4 9.8l-24.3-3.4a38.7 38.7 0 0 1 25.6-27 68.7 68.7 0 0 1 37-1.6c5.2 1.3 10 3.3 14.4 6.2a31 31 0 0 1 10.5 11.6c2.6 4.8 4 11 4 18.3v73.7h-25v-15.1h-.8a31.7 31.7 0 0 1-17.4 15 43 43 0 0 1-15 2.3Zm6.8-19c5.2 0 9.7-1 13.5-3.2 3.8-2 6.8-4.8 8.8-8.3 2.1-3.4 3.2-7.2 3.2-11.2v-13c-.8.7-2.2 1.3-4.2 1.9l-6.4 1.5a198 198 0 0 1-13.2 2c-3.9.5-7.4 1.4-10.4 2.5-3 1.2-5.5 3-7.3 5a12.3 12.3 0 0 0-2.6 8.2c0 4.8 1.7 8.4 5.2 10.9 3.5 2.4 8 3.6 13.4 3.6ZM548.7 196.2v20.1h-63.4v-20h63.4Zm-47.8-26.4h26v103.5c0 3.4.5 6.1 1.6 8 1.1 1.8 2.5 3 4.3 3.7 1.8.7 3.7 1 5.9 1a25.4 25.4 0 0 0 7.6-1l4.4 20.3a58.1 58.1 0 0 1-15.3 2.6c-6.5.2-12.4-.8-17.6-3a27.3 27.3 0 0 1-12.4-10.1c-3-4.6-4.5-10.4-4.4-17.2V169.8ZM615.1 308.5c-11 0-20.6-2.3-28.6-6.8A46.6 46.6 0 0 1 568 282a65.8 65.8 0 0 1-6.5-30c0-11.4 2.1-21.3 6.5-29.9a48.8 48.8 0 0 1 45.6-27.3c6.8 0 13.2 1 19.3 3.3 6 2.1 11.4 5.5 16 10a47 47 0 0 1 11 17.4c2.8 7 4.1 15.3 4.1 25v7.9h-90.3v-17.5h65.4c0-5-1.1-9.4-3.2-13.3-2.1-3.9-5-7-8.8-9.2-3.8-2.3-8.1-3.4-13.1-3.4-5.3 0-10 1.3-14 3.9-4 2.5-7.1 5.9-9.4 10a29 29 0 0 0-3.4 13.6v15.3c0 6.4 1.2 11.9 3.6 16.5a25 25 0 0 0 9.8 10.4c4.2 2.4 9.1 3.6 14.8 3.6 3.7 0 7.2-.5 10.2-1.6 3-1 5.7-2.7 8-4.8a20 20 0 0 0 5-7.8l24.3 2.7c-1.5 6.4-4.4 12-8.7 16.8a42.7 42.7 0 0 1-16.4 11 62.7 62.7 0 0 1-22.8 4ZM597.9 81.9a56.8 56.8 0 1 1-113.7 0 56.8 56.8 0 0 1 113.7 0Z"/><mask id="a" width="111" height="111" x="693" y="195" maskUnits="userSpaceOnUse" style="mask-type:alpha"><path fill="#fff" d="M693.3 195.2h110.3v110.3H693.3V195.2Z"/></mask><g mask="url(#a)"><path fill="#000" d="M803.6 305.5a110.3 110.3 0 1 1-220.6 0 110.3 110.3 0 0 1 220.6 0Z"/></g></svg>