<svg width="81" height="31" viewBox="0 0 81 31" fill="none" xmlns="http://www.w3.org/2000/svg">
<g clip-path="url(#clip0_52_316)">
<path d="M65.6321 30.564H15.3677C6.91321 30.564 0 23.7187 0 15.3458C0 6.97297 6.91321 0.127625 15.3677 0.127625H65.6321C74.0867 0.127625 81 6.97297 81 15.3458C81 23.7187 74.0867 30.564 65.6321 30.564Z" fill="black"/>
<path d="M79.5613 15.3476C79.5613 22.9941 73.2959 29.1985 65.5732 29.1985C57.851 29.1985 51.5849 22.9941 51.5849 15.3476C51.5849 7.7011 57.8504 1.4967 65.5822 1.4967C73.3118 1.4967 79.5703 7.7011 79.5703 15.3476" fill="white"/>
<path d="M9.17051 14.2936C9.55358 13.0705 10.6866 12.2623 12.0571 12.2623C13.4274 12.2623 14.3465 12.9958 14.636 14.2936H9.17051ZM11.9276 10.1865C8.95651 10.1865 6.79301 12.3442 6.79301 15.312C6.79301 16.8217 7.36307 18.2032 8.39359 19.1895C9.37193 20.126 10.683 20.6405 12.1218 20.6405C12.1901 20.6405 12.2495 20.6405 12.3178 20.6405C13.8681 20.5906 15.7906 19.5278 16.4308 18.3724L16.6431 17.9932L15.0856 17.2846L14.8806 17.4875C14.2853 18.0768 13.5695 18.618 12.3609 18.618H12.3178C10.5985 18.602 9.4493 17.6994 9.11658 16.122H16.7869L16.8211 15.7589C16.8373 15.5648 16.8373 15.3547 16.8373 15.1856C16.7941 12.2089 14.8194 10.2025 11.9077 10.2025L11.9276 10.1865Z" fill="white"/>
<path d="M25.6514 16.0633C25.6514 17.598 24.4087 18.6679 22.6372 18.6679C21.4196 18.6679 20.569 18.205 20.569 17.5303C20.569 17.2526 20.569 16.4176 23.1911 16.106L25.6514 15.8194V16.0633ZM23.3782 10.247C21.2326 10.247 19.3515 11.317 18.7976 12.8516L18.686 13.181L20.3298 13.7631L20.4737 13.4925C20.9161 12.6754 22.006 12.1608 23.326 12.1608C24.7396 12.1608 25.6838 12.759 25.6838 13.6527C25.6838 13.8468 25.5399 13.9643 25.2414 13.9981L22.952 14.2687C19.249 14.7067 18.4738 16.293 18.4738 17.5481C18.4738 19.3355 20.0834 20.5835 22.3908 20.5835C23.3026 20.5835 24.5453 20.2809 25.6082 18.9314L25.8546 20.2292H27.761V13.8718C27.761 11.7051 25.9985 10.2541 23.3854 10.2541L23.3782 10.247Z" fill="white"/>
<path d="M37.5465 13.6937L35.7588 14.0729L35.7085 13.626C35.5718 12.4795 34.7373 12.2356 34.0647 12.2356C32.804 12.2356 32.0558 13.2557 32.0558 14.9595V20.2791H29.842V10.5426H31.6386L31.8166 11.7567C32.4389 10.8879 33.2896 10.1722 34.2679 10.1722C36.0735 10.1722 37.3163 11.3864 37.5123 13.3341L37.5465 13.6937Z" fill="white"/>
<path d="M48.0941 14.1157V20.2862H45.8641V14.2581C45.8641 12.9513 45.1231 12.1679 43.8714 12.1679C42.2366 12.1679 41.0964 13.2646 41.0964 14.8402V20.2862H38.8825V10.5407H40.7475L40.9525 11.9579C41.7276 11.0642 42.8175 10.1882 44.2473 10.1882C46.614 10.1882 48.0779 11.698 48.0779 14.1174" fill="white"/>
<path d="M72.7505 14.1156V20.2862H70.3584V14.258C70.3584 13.0011 69.6424 12.2517 68.4524 12.2517C67.1161 12.2517 66.1198 13.01 65.8388 14.1566C65.7884 14.3756 65.7544 14.6034 65.7544 14.8473V20.2933H63.3788V10.5301H65.3965L65.5834 11.787C65.6683 11.7033 65.7454 11.6179 65.8298 11.5342C66.7582 10.6315 67.7545 10.1847 68.8262 10.1847C71.2777 10.1847 72.7431 11.6517 72.7431 14.105" fill="black"/>
<path d="M61.2728 12.0842V20.2879H58.8898V10.5336H61.0423L61.2728 12.0842Z" fill="black"/>
</g>
<defs>
<clipPath id="clip0_52_316">
<rect width="81" height="31" fill="white"/>
</clipPath>
</defs>
</svg>
