<?xml version="1.0" encoding="UTF-8" standalone="no"?>
<!DOCTYPE svg PUBLIC "-//W3C//DTD SVG 1.1//EN" "http://www.w3.org/Graphics/SVG/1.1/DTD/svg11.dtd">
<svg width="100%" height="100%" viewBox="0 0 477 91" version="1.1" xmlns="http://www.w3.org/2000/svg" xmlns:xlink="http://www.w3.org/1999/xlink" xml:space="preserve" xmlns:serif="http://www.serif.com/" style="fill-rule:evenodd;clip-rule:evenodd;stroke-linejoin:round;stroke-miterlimit:2;">
    <rect id="Page-1" serif:id="Page 1" x="0" y="0" width="476.557" height="90.173" style="fill:none;"/>
    <clipPath id="_clip1">
        <rect id="Page-11" serif:id="Page 1" x="0" y="0" width="476.557" height="90.173"/>
    </clipPath>
    <g clip-path="url(#_clip1)">
        <g id="BG">
        </g>
        <g id="Full-logo---Blue" serif:id="Full logo - Blue">
            <g transform="matrix(1,0,0,1,150.376,71.4733)">
                <path d="M0,-57.645C-2.763,-59.026 -6.028,-59.78 -9.168,-59.78C-17.331,-59.78 -24.867,-54.756 -24.867,-44.584L-24.867,0.377C-24.867,1.382 -24.113,2.135 -23.108,2.135L-15.95,2.135C-14.945,2.135 -14.192,1.382 -14.192,0.377L-14.192,-32.402L-4.898,-32.402C-3.893,-32.402 -3.14,-33.155 -3.14,-34.16L-3.14,-38.43C-3.14,-39.435 -3.893,-40.188 -4.898,-40.188L-14.192,-40.188L-14.192,-44.709C-14.192,-48.603 -11.68,-50.361 -8.414,-50.361C-7.033,-50.361 -5.526,-49.984 -4.144,-49.356C-3.265,-48.854 -2.135,-49.231 -1.758,-50.11L0.754,-55.008C1.256,-56.012 0.879,-57.143 0,-57.645" style="fill:rgb(34,97,208);fill-rule:nonzero;"/>
            </g>
            <g transform="matrix(1,0,0,1,187.299,51.1289)">
                <path d="M0,0.753C0,2.009 -0.126,3.39 -0.377,4.646C-1.884,10.298 -6.154,14.065 -12.308,14.065C-19.717,14.065 -24.867,8.54 -24.867,0.502C-24.741,-7.41 -19.592,-13.062 -12.308,-13.062C-6.154,-13.062 -1.884,-9.42 -0.377,-3.643C0,-2.387 0,-1.005 0,0.251L0,0.753ZM9.168,-21.727L2.009,-21.727C1.005,-21.727 0.251,-20.974 0.251,-19.969L0.251,-14.694C-3.014,-19.592 -8.163,-22.355 -14.945,-22.23C-27.378,-22.104 -35.667,-13.062 -35.667,0.251C-35.667,13.814 -27.253,23.108 -14.568,23.108C-7.912,23.108 -2.889,20.345 0.251,15.573L0.251,20.847C0.251,21.852 1.005,22.606 2.009,22.606L9.168,22.606C10.173,22.606 10.926,21.852 10.926,20.847L10.926,-19.969C11.052,-20.974 10.173,-21.727 9.168,-21.727" style="fill:rgb(34,97,208);fill-rule:nonzero;"/>
            </g>
            <g transform="matrix(1,0,0,1,217.566,61.8028)">
                <path d="M0,-20.596C0,-23.359 2.512,-24.489 6.028,-24.489C9.419,-24.489 13.564,-23.359 17.457,-21.35C18.336,-20.847 19.466,-21.224 19.969,-22.103L22.229,-26.75C22.606,-27.629 22.355,-28.634 21.476,-29.136C17.206,-31.522 11.805,-32.904 6.656,-32.904C-2.261,-32.904 -10.047,-28.634 -10.047,-19.591C-10.173,-3.893 13.061,-8.288 13.061,-0.125C13.061,2.764 10.298,4.019 6.531,4.019C2.386,4.019 -2.889,2.512 -6.782,-0.251C-7.661,-0.879 -8.917,-0.502 -9.419,0.503L-11.554,4.773C-11.931,5.527 -11.68,6.531 -11.052,7.034C-6.405,10.425 -0.126,12.308 6.028,12.308C15.447,12.308 23.485,7.913 23.485,-1.13C23.485,-16.954 0,-13.061 0,-20.596" style="fill:rgb(34,97,208);fill-rule:nonzero;"/>
            </g>
            <g transform="matrix(1,0,0,1,270.565,28.5226)">
                <path d="M0,36.295C-0.251,35.29 -1.382,34.788 -2.386,35.165C-4.019,35.793 -5.526,36.169 -6.782,36.169C-9.796,36.169 -11.554,34.034 -11.554,29.262L-11.554,10.549L-0.628,10.549C0.377,10.549 1.13,9.796 1.13,8.791L1.13,4.521C1.13,3.516 0.377,2.763 -0.628,2.763L-11.554,2.763L-11.554,-7.661C-11.554,-8.666 -12.308,-9.419 -13.312,-9.419L-20.471,-9.419C-21.476,-9.419 -22.229,-8.666 -22.229,-7.661L-22.229,31.146C-22.229,40.816 -16.452,45.714 -8.917,45.714C-5.777,45.714 -2.512,44.835 0.628,43.202C1.382,42.826 1.884,41.821 1.507,41.067L0,36.295Z" style="fill:rgb(34,97,208);fill-rule:nonzero;"/>
            </g>
            <g transform="matrix(1,0,0,1,372.418,38.0667)">
                <path d="M0,27.002C-7.41,27.002 -12.559,21.476 -12.559,13.564C-12.559,5.652 -7.41,0.126 0,0.126C7.284,0.126 12.433,5.652 12.433,13.564C12.433,21.476 7.284,27.002 0,27.002M0,-9.042C-14.066,-9.042 -23.485,0 -23.485,13.438C-23.485,27.002 -14.066,36.044 0,36.044C13.815,36.044 23.36,26.876 23.36,13.438C23.234,0 13.815,-9.042 0,-9.042" style="fill:rgb(34,97,208);fill-rule:nonzero;"/>
            </g>
            <g transform="matrix(1,0,0,1,427.551,73.3576)">
                <path d="M0,-44.333C-5.903,-43.705 -10.424,-40.691 -13.061,-35.542L-13.061,-42.324C-13.061,-43.328 -13.815,-44.082 -14.819,-44.082L-21.978,-44.082C-22.983,-44.082 -23.736,-43.328 -23.736,-42.324L-23.736,-1.633C-23.736,-0.628 -22.983,0.126 -21.978,0.126L-14.819,0.126C-13.815,0.126 -13.061,-0.628 -13.061,-1.633L-13.061,-20.973C-13.061,-28.509 -8.038,-33.784 0.251,-33.909C1.256,-33.909 2.009,-34.788 2.009,-35.667L2.009,-42.324C2.009,-43.579 1.13,-44.459 0,-44.333" style="fill:rgb(34,97,208);fill-rule:nonzero;"/>
            </g>
            <g transform="matrix(1,0,0,1,476.28,14.9584)">
                <path d="M0,56.013L-15.573,31.523L-2.135,17.457C-1.005,16.327 -1.884,14.443 -3.391,14.443L-10.801,14.443C-11.303,14.443 -11.805,14.694 -12.057,14.945L-29.765,32.779L-29.765,-1.004C-29.765,-2.009 -30.518,-2.763 -31.523,-2.763L-38.681,-2.763C-39.686,-2.763 -40.44,-2.009 -40.44,-1.004L-40.44,56.892C-40.44,57.897 -39.686,58.65 -38.681,58.65L-31.523,58.65C-30.518,58.65 -29.765,57.897 -29.765,56.892L-29.765,46.468L-22.983,39.31L-11.554,57.897C-11.177,58.399 -10.675,58.776 -10.047,58.776L-1.507,58.776C-0.126,58.776 0.754,57.143 0,56.013" style="fill:rgb(34,97,208);fill-rule:nonzero;"/>
            </g>
            <g transform="matrix(1,0,0,1,342.151,69.5908)">
                <path d="M0,-34.789L0,-38.305C0,-39.31 -0.754,-40.064 -1.758,-40.064L-8.917,-40.064C-9.922,-40.064 -10.675,-39.31 -10.675,-38.305L-10.675,-27.254C-10.675,-22.858 -10.549,-18.462 -10.675,-14.067C-10.801,-10.55 -12.81,-7.411 -16.327,-6.406C-20.848,-5.15 -25.62,-8.29 -26.123,-12.936C-26.248,-14.192 -26.123,-15.448 -26.123,-16.704L-26.123,-38.431C-26.123,-39.436 -26.876,-40.189 -27.881,-40.189L-35.039,-40.189C-36.044,-40.189 -36.798,-39.436 -36.798,-38.431L-36.798,-27.379C-36.798,-22.984 -36.672,-18.588 -36.798,-14.192C-36.923,-10.55 -39.058,-7.411 -42.7,-6.406C-47.222,-5.276 -51.868,-8.541 -52.245,-13.188C-52.371,-14.318 -52.245,-15.574 -52.245,-16.704L-52.245,-38.431C-52.245,-39.436 -52.999,-40.189 -54.003,-40.189L-61.288,-40.189C-62.292,-40.189 -63.046,-39.436 -63.046,-38.431L-63.046,-13.816C-63.046,-5.15 -56.766,2.511 -48.101,4.144C-41.444,5.4 -35.039,2.511 -31.397,-3.266C-28.76,1.004 -24.364,3.892 -19.341,4.395C-14.82,4.772 -10.047,3.139 -6.531,0.25C-3.642,-2.136 -1.507,-5.527 -0.502,-9.169C0.251,-11.806 0.126,-14.444 0.126,-17.081C0,-22.984 0,-28.886 0,-34.789" style="fill:rgb(34,97,208);fill-rule:nonzero;"/>
            </g>
            <g transform="matrix(1,0,0,1,37.5404,36.5593)">
                <path d="M0,18.708C0,11.922 5.501,6.421 12.287,6.421C19.072,6.421 24.573,11.922 24.573,18.708C24.573,25.494 19.072,30.995 12.287,30.995C5.501,30.995 0,25.494 0,18.708M56.422,27.649L36.059,11.983L36.462,15.014C36.65,16.242 36.745,17.494 36.745,18.736C36.745,19.815 36.669,20.877 36.533,21.919L51.616,33.522C54.497,35.552 55.406,39.479 53.61,42.591C51.813,45.702 47.957,46.879 44.759,45.399L22.045,36.023C28.084,32.612 32.164,26.138 32.164,18.708C32.164,17.415 32.036,16.152 31.801,14.928L26.633,-23.943C25.723,-31.058 19.649,-36.559 12.287,-36.559C4.924,-36.559 -1.149,-31.059 -2.06,-23.944L-5.445,1.52L-3.023,-0.343C-2.055,-1.119 -1.019,-1.827 0.058,-2.449C0.984,-2.984 1.942,-3.455 2.924,-3.863L5.43,-22.718C5.747,-26.228 8.694,-28.979 12.287,-28.979C15.879,-28.979 18.826,-26.228 19.144,-22.718L22.373,1.581C22.373,1.582 22.373,1.582 22.374,1.582C19.416,-0.164 15.97,-1.169 12.287,-1.169C7.231,-1.169 2.618,0.722 -0.89,3.831L-31.849,27.649C-37.555,31.994 -39.282,40.005 -35.601,46.381C-31.919,52.757 -24.119,55.267 -17.501,52.497L6.246,42.695L3.423,41.53C2.266,41.079 1.135,40.536 0.058,39.915C-0.873,39.377 -1.756,38.78 -2.597,38.138L-20.185,45.399C-23.384,46.879 -27.24,45.702 -29.036,42.591C-30.833,39.479 -29.924,35.552 -27.042,33.522L-7.587,18.555C-7.587,18.606 -7.591,18.656 -7.591,18.708C-7.591,27.237 -2.218,34.508 5.326,37.33L5.326,37.329L42.075,52.497C48.692,55.267 56.493,52.757 60.174,46.381C63.855,40.005 62.128,31.994 56.422,27.649" style="fill:rgb(34,97,208);fill-rule:nonzero;"/>
            </g>
        </g>
        <g id="Full-logo---White" serif:id="Full logo - White">
        </g>
        <g id="Badge---Blue" serif:id="Badge - Blue">
        </g>
        <g id="Badge---White" serif:id="Badge - White">
        </g>
        <g id="Icon---Blue" serif:id="Icon - Blue">
        </g>
        <g id="Icon---White" serif:id="Icon - White">
        </g>
    </g>
</svg>
