<svg viewBox="0 0 366 176" fill="black" xmlns="http://www.w3.org/2000/svg" height="44"><path d="M46.2891 58.582C61.4844 58.582 72.7344 63.4648 80.0391 73.2305C85.7422 80.8477 88.5938 90.5938 88.5938 102.469C88.5938 115.32 85.332 126.004 78.8086 134.52C71.1523 144.52 60.2344 149.52 46.0547 149.52C32.8125 149.52 22.4023 145.145 14.8242 136.395C8.06641 127.957 4.6875 117.293 4.6875 104.402C4.6875 92.7617 7.57813 82.8008 13.3594 74.5195C20.7812 63.8945 31.7578 58.582 46.2891 58.582ZM47.4609 139.09C57.7344 139.09 65.1562 135.418 69.7266 128.074C74.3359 120.691 76.6406 112.215 76.6406 102.645C76.6406 92.5273 73.9844 84.3828 68.6719 78.2109C63.3984 72.0391 56.1719 68.9531 46.9922 68.9531C38.0859 68.9531 30.8203 72.0195 25.1953 78.1523C19.5703 84.2461 16.7578 93.25 16.7578 105.164C16.7578 114.695 19.1602 122.742 23.9648 129.305C28.8086 135.828 36.6406 139.09 47.4609 139.09ZM135.586 137.039C139.531 137.039 142.773 136.629 145.312 135.809C149.844 134.285 153.555 131.355 156.445 127.02C158.75 123.543 160.41 119.09 161.426 113.66C162.012 110.418 162.305 107.41 162.305 104.637C162.305 93.9727 160.176 85.6914 155.918 79.793C151.699 73.8945 144.883 70.9453 135.469 70.9453H114.785V137.039H135.586ZM103.066 60.9258H137.93C149.766 60.9258 158.945 65.125 165.469 73.5234C171.289 81.1016 174.199 90.8086 174.199 102.645C174.199 111.785 172.48 120.047 169.043 127.43C162.988 140.477 152.578 147 137.812 147H103.066V60.9258ZM222.305 137.039C226.25 137.039 229.492 136.629 232.031 135.809C236.562 134.285 240.273 131.355 243.164 127.02C245.469 123.543 247.129 119.09 248.145 113.66C248.73 110.418 249.023 107.41 249.023 104.637C249.023 93.9727 246.895 85.6914 242.637 79.793C238.418 73.8945 231.602 70.9453 222.188 70.9453H201.504V137.039H222.305ZM189.785 60.9258H224.648C236.484 60.9258 245.664 65.125 252.188 73.5234C258.008 81.1016 260.918 90.8086 260.918 102.645C260.918 111.785 259.199 120.047 255.762 127.43C249.707 140.477 239.297 147 224.531 147H189.785V60.9258ZM283.594 119.227C283.867 124.109 285.02 128.074 287.051 131.121C290.918 136.824 297.734 139.676 307.5 139.676C311.875 139.676 315.859 139.051 319.453 137.801C326.406 135.379 329.883 131.043 329.883 124.793C329.883 120.105 328.418 116.766 325.488 114.773C322.52 112.82 317.871 111.121 311.543 109.676L299.883 107.039C292.266 105.32 286.875 103.426 283.711 101.355C278.242 97.7617 275.508 92.3906 275.508 85.2422C275.508 77.5078 278.184 71.1602 283.535 66.1992C288.887 61.2383 296.465 58.7578 306.27 58.7578C315.293 58.7578 322.949 60.9453 329.238 65.3203C335.566 69.6562 338.73 76.6094 338.73 86.1797H327.773C327.188 81.5703 325.938 78.0352 324.023 75.5742C320.469 71.082 314.434 68.8359 305.918 68.8359C299.043 68.8359 294.102 70.2812 291.094 73.1719C288.086 76.0625 286.582 79.4219 286.582 83.25C286.582 87.4688 288.34 90.5547 291.855 92.5078C294.16 93.7578 299.375 95.3203 307.5 97.1953L319.57 99.9492C325.391 101.277 329.883 103.094 333.047 105.398C338.516 109.422 341.25 115.262 341.25 122.918C341.25 132.449 337.773 139.266 330.82 143.367C323.906 147.469 315.859 149.52 306.68 149.52C295.977 149.52 287.598 146.785 281.543 141.316C275.488 135.887 272.52 128.523 272.637 119.227H283.594Z"></path><rect width="13" height="176" transform="matrix(-1 0 0 1 366 0)"></rect></svg>
