<svg xmlns="http://www.w3.org/2000/svg" width="2537" height="1391" fill="none"><path fill="#343435" d="M658.8 1362.3a36.8 36.8 0 1 1 0-73.6 36.8 36.8 0 0 1 0 73.6Zm0-95.3a58.5 58.5 0 1 0 0 117 58.5 58.5 0 0 0 0-117ZM809.4 1362.3h-20.1v-73.5h20a36.8 36.8 0 1 1 0 73.5Zm0-95.3h-41.8v117.1h41.8a58.5 58.5 0 0 0 0-117ZM953.9 1362.3h-20v-73.5h20a36.8 36.8 0 1 1 0 73.5Zm0-95.3h-41.8v117.1h41.8a58.6 58.6 0 0 0 0-117ZM1504 1273.3h-100.8v21.8l39.5.3v95.5h21.8v-95.8h39.5v-21.8ZM1554.4 1273.3h84v21.8h-62.1v26h52v22h-52v26h62.2v21.8h-84v-117.6ZM1941 1273.3l-50.4 72.2-50.4-72.2v117.6h21.8v-52.7l28.6 41 28.6-41v52.7h21.8v-117.6ZM1316.4 1320.3H1252v21.9h64.5v-21.9ZM1749.2 1347.2l-9.9-23-9.8 23h19.7Zm-60.3 43.7 50.4-117.6 50.4 117.6H1768l-9.4-21.8h-38.4l-9.4 21.8H1689ZM1152.6 1381.6a56.7 56.7 0 0 1-32.6 9.3c-10.1 0-17 0-28-2.5-10.3-2.4-16.2-6.3-23.2-11l-1.2-.8 12.9-18.5a57.6 57.6 0 0 0 16.5 8.4c9.3 2.3 16 2.3 21.8 2.3h1.5a31 31 0 0 0 14.7-3.4c3.9-2.2 5.8-5.3 5.8-9.8 0-2.9-1.4-4.7-4.2-6.6-2.8-1.9-6.8-3-11.5-3.7l-17.4-2c-9.7-1.5-20.8-5-26.6-10.5-5.8-5.5-8.6-15.2-8.6-25.5s4.1-17.2 12.3-24c8.2-6.7 18.1-10 35.8-10a64 64 0 0 1 37 9.5c4.3 2.9 4.2 3 4.2 3l-13.5 16.9s-3.3-3.1-9.2-5c-6-2-10.2-2.8-15.6-2.8-6.6 0-16.6 0-22 4-3.6 2.8-5.3 6-5.3 9.6v.1c0 3.6 0 5.9 3.4 9.2 2.4 2.5 6.8 2.7 10.5 3l3 .2 17.2 2a46.7 46.7 0 0 1 25.4 10.2 29.8 29.8 0 0 1 9.4 23.3c0 11.3-4.1 18.6-12.5 25.1Z"/><path fill="#0056A9" d="M1554.3 140c-28-25.2-58.7-47.4-91.5-66.4v233c-67-75.9-165-123.7-274.3-123.7-102.3 0-194.8 42-261.1 109.7a455.6 455.6 0 0 1 45.7 86.2 274.3 274.3 0 1 1-58.9 169.8 365.7 365.7 0 1 0-104.5 256 456 456 0 0 1-45.7-86.2 274.3 274.3 0 1 1 58.9-169.8 365.6 365.6 0 1 0 731.4 0V139.9ZM2419.2 182.9h-705.4a639 639 0 0 1 53.2 91.4h153v630.2c32.4-8.3 63.1-21 91.4-37.4V274.3h524.8a640.2 640.2 0 0 0-117-91.4Z"/><path fill="#343435" d="M548.6 1097.1a547 547 0 0 0 391.8-164.6 459.3 459.3 0 0 1-71.8-57.5 457.1 457.1 0 1 1-156.7-753.5 644 644 0 0 1 71.9-68.7 548.6 548.6 0 1 0-235.2 1044.3ZM1645.7 548.6a457.1 457.1 0 0 1-620.5 427 644.4 644.4 0 0 1-71.8 68.7 548.6 548.6 0 0 0 692.3-799v303.3Z"/><path fill="#343435" d="M1188.5 0c64.2 0 125.7 11 183 31.2v98.3c-56-24.5-118-38-183-38a455.7 455.7 0 0 0-320 130.6 459.3 459.3 0 0 0-71.7-57.5A547 547 0 0 1 1188.6 0ZM1518.4 0a642.6 642.6 0 0 1 118 91.4h740.7a642.6 642.6 0 0 0-118-91.4h-740.7ZM2247.6 365.7h98.3a548.6 548.6 0 0 1-752.5 678.6c25.6-21 49.7-44 71.8-68.6a457.1 457.1 0 0 0 582.4-610Z"/></svg>