<?xml version="1.0" encoding="UTF-8" standalone="no"?>
<!DOCTYPE svg PUBLIC "-//W3C//DTD SVG 1.1//EN" "http://www.w3.org/Graphics/SVG/1.1/DTD/svg11.dtd">
<svg width="100%" height="100%" viewBox="0 0 3063 807" version="1.1" xmlns="http://www.w3.org/2000/svg" xmlns:xlink="http://www.w3.org/1999/xlink" xml:space="preserve" xmlns:serif="http://www.serif.com/" style="fill-rule:evenodd;clip-rule:evenodd;stroke-linejoin:round;stroke-miterlimit:2;">
    <g transform="matrix(4.16667,0,0,4.16667,372.48,684.266)">
        <path d="M0,-8.258C0,-7.367 -1.12,-6.647 -2.503,-6.647L-45.837,-6.647C-47.219,-6.647 -48.34,-7.367 -48.34,-8.258L-48.34,-10.944C-48.34,-11.834 -47.219,-12.555 -45.837,-12.555L-2.503,-12.555C-1.12,-12.555 0,-11.834 0,-10.944L0,-8.258ZM-17.667,2.539C-17.667,3.43 -18.377,4.152 -19.254,4.152L-46.753,4.152C-47.628,4.152 -48.34,3.43 -48.34,2.539L-48.34,-0.145C-48.34,-1.037 -47.628,-1.758 -46.753,-1.758L-19.254,-1.758C-18.377,-1.758 -17.667,-1.037 -17.667,-0.145L-17.667,2.539ZM8.303,-12.174L8.303,-17.014C8.303,-18.619 6.895,-19.92 5.156,-19.92L-49.338,-19.92C-51.075,-19.92 -52.483,-18.619 -52.483,-17.014L-52.483,-12.174C-52.483,-10.824 -51.487,-9.688 -50.136,-9.362C-51.487,-9.035 -52.483,-7.901 -52.483,-6.549L-52.483,-1.709C-52.483,-0.36 -51.486,0.775 -50.136,1.101C-51.486,1.43 -52.483,2.564 -52.483,3.914L-52.483,8.754C-52.483,10.359 -51.075,11.662 -49.338,11.662L5.156,11.662C6.895,11.662 8.303,10.359 8.303,8.754L8.303,3.914C8.303,2.564 7.307,1.43 5.955,1.101C7.307,0.775 8.303,-0.36 8.303,-1.709L8.303,-6.549C8.303,-7.901 7.307,-9.035 5.955,-9.362C7.307,-9.688 8.303,-10.824 8.303,-12.174" style="fill:rgb(35,31,32);fill-rule:nonzero;"/>
    </g>
    <g transform="matrix(4.16667,0,0,4.16667,280.435,738.723)">
        <path d="M0,16.184C14.183,16.184 25.68,8.938 25.68,0L-25.68,0C-25.68,8.938 -14.182,16.184 0,16.184" style="fill:rgb(35,31,32);fill-rule:nonzero;"/>
    </g>
    <g transform="matrix(4.16667,0,0,4.16667,255.374,-0.223041)">
        <path d="M0,142.992L-19.914,142.992C-21.452,142.992 -22.806,141.972 -23.232,140.494C-24.576,135.836 -24.365,131.299 -24.161,126.91C-23.904,121.367 -23.683,116.582 -26.576,112.455C-32.544,103.941 -43.421,83.799 -44.535,81.728C-45.6,80.656 -50.128,77.474 -53.161,75.342C-55.715,73.547 -58.126,71.853 -59.907,70.492C-60.735,69.861 -61.239,68.898 -61.286,67.851C-61.362,66.137 -60.252,65.039 -59.518,64.31C-58.997,63.797 -58.311,63.17 -57.518,62.443C-56.133,61.178 -54.411,59.603 -52.993,58.088C-51.173,56.14 -50.766,55.252 -50.69,55.054C-49.806,42.99 -46.629,32.581 -41.247,24.116C-36.879,17.246 -31.078,11.661 -24.005,7.516C-12.026,0.497 -0.587,0.07 -0.106,0.055C1.799,0 3.393,1.495 3.451,3.402C3.51,5.305 2.015,6.896 0.112,6.959C-0.038,6.965 -10.304,7.406 -20.761,13.622C-34.638,21.869 -42.393,36.014 -43.811,55.664C-44.063,59.174 -47.751,62.861 -52.586,67.293C-51.5,68.068 -50.335,68.887 -49.19,69.691C-40.903,75.515 -39.137,76.922 -38.446,78.467C-37.404,80.402 -26.586,100.41 -20.92,108.49C-16.674,114.547 -16.986,121.285 -17.262,127.228C-17.405,130.312 -17.542,133.263 -17.129,136.084L0,136.084C1.906,136.084 3.454,137.631 3.454,139.537C3.454,141.445 1.906,142.992 0,142.992" style="fill:rgb(248,217,74);fill-rule:nonzero;"/>
    </g>
    <g transform="matrix(4.16667,0,0,4.16667,389.425,-0.223041)">
        <path d="M0,142.992L-19.914,142.992C-21.821,142.992 -23.366,141.445 -23.366,139.537C-23.366,137.631 -21.821,136.084 -19.914,136.084L-2.786,136.084C-2.373,133.263 -2.509,130.312 -2.652,127.23C-2.928,121.285 -3.239,114.547 1.007,108.49C6.674,100.406 17.492,80.398 18.532,78.467C19.223,76.922 20.989,75.513 29.276,69.693C30.421,68.887 31.586,68.068 32.673,67.293C27.837,62.861 24.149,59.174 23.897,55.662C22.471,35.892 14.633,21.699 0.601,13.476C-9.876,7.337 -19.918,6.962 -20.019,6.959C-21.925,6.9 -23.423,5.308 -23.365,3.402C-23.307,1.496 -21.715,0 -19.807,0.055C-19.326,0.07 -7.888,0.497 4.092,7.516C11.164,11.661 16.965,17.246 21.333,24.116C26.715,32.582 29.893,42.99 30.778,55.054C30.852,55.252 31.259,56.14 33.08,58.088C34.497,59.603 36.22,61.178 37.604,62.443C38.398,63.17 39.083,63.797 39.604,64.31C40.338,65.039 41.447,66.137 41.371,67.851C41.324,68.898 40.822,69.861 39.991,70.494C38.212,71.853 35.801,73.549 33.246,75.342C30.213,77.474 25.686,80.656 24.621,81.728C23.507,83.799 12.63,103.941 6.662,112.455C3.768,116.582 3.991,121.367 4.247,126.91C4.451,131.299 4.662,135.836 3.318,140.494C2.892,141.972 1.538,142.992 0,142.992" style="fill:rgb(248,217,74);fill-rule:nonzero;"/>
    </g>
    <g transform="matrix(4.16667,0,0,4.16667,370.167,98.3536)">
        <path d="M0,20.025L-1.728,20.025L-1.728,11.226L-22.129,11.226C-22.527,11.226 -22.874,10.953 -22.967,10.566L-23.733,7.397L-27.062,16.854C-27.189,17.213 -27.536,17.446 -27.916,17.429C-28.296,17.412 -28.62,17.148 -28.714,16.779L-31.921,4.1L-33.888,10.613C-33.998,10.977 -34.334,11.226 -34.715,11.226L-42.951,11.226L-42.951,17.039L-44.678,17.039L-44.678,10.363C-44.678,9.885 -44.292,9.5 -43.814,9.5L-35.356,9.5L-32.674,0.622C-32.561,0.25 -32.213,0 -31.828,0.007C-31.44,0.017 -31.105,0.284 -31.011,0.66L-27.742,13.582L-24.394,4.073C-24.267,3.713 -23.917,3.478 -23.536,3.497C-23.154,3.516 -22.831,3.785 -22.741,4.156L-21.449,9.5L-0.864,9.5C-0.388,9.5 0,9.885 0,10.363L0,20.025Z" style="fill:rgb(35,31,32);fill-rule:nonzero;"/>
    </g>
    <g transform="matrix(4.16667,0,0,4.16667,230.61,359.859)">
        <path d="M0,49.631L-1.727,49.631L-1.727,19.883L-10.32,19.883C-10.798,19.883 -11.185,19.498 -11.185,19.022L-11.185,0L-9.458,0L-9.458,18.156L-0.863,18.156C-0.386,18.156 0,18.543 0,19.022L0,49.631Z" style="fill:rgb(35,31,32);fill-rule:nonzero;"/>
    </g>
    <g transform="matrix(-4.16667,0,0,4.16667,558.158,-534.262)">
        <rect x="83.804" y="167.138" width="10.256" height="48.068" style="fill:rgb(251,176,65);"/>
    </g>
    <g transform="matrix(4.16667,0,0,4.16667,321.798,327.517)">
        <path d="M0,57.393L-1.727,57.393L-1.727,26.784C-1.727,26.305 -1.34,25.918 -0.864,25.918L10.581,25.918L10.581,0L12.306,0L12.306,26.784C12.306,27.26 11.92,27.645 11.443,27.645L0,27.645L0,57.393Z" style="fill:rgb(35,31,32);fill-rule:nonzero;"/>
    </g>
    <g transform="matrix(4.16667,0,0,4.16667,334.821,197.052)">
        <path d="M0,31.312C-8.476,31.312 -15.346,24.302 -15.346,15.658C-15.346,7.009 -8.476,0.001 0,0.001C8.476,0.001 15.347,7.009 15.347,15.658C15.347,24.302 8.476,31.312 0,31.312M0,-8.178C-12.903,-8.178 -23.365,2.494 -23.365,15.658C-23.365,28.82 -12.903,39.49 0,39.49C12.905,39.49 23.365,28.82 23.365,15.658C23.365,2.494 12.905,-8.178 0,-8.178" style="fill:rgb(35,31,32);fill-rule:nonzero;"/>
    </g>
    <g transform="matrix(4.16667,0,0,4.16667,1442.96,237.934)">
        <path d="M0,-2.033L8.251,-2.033C9.768,-2.033 11.055,-2.178 12.106,-2.469C13.159,-2.76 14.013,-3.189 14.667,-3.76C15.323,-4.33 15.796,-5.031 16.089,-5.863C16.385,-6.695 16.531,-7.652 16.531,-8.736C16.531,-9.957 16.352,-10.976 15.99,-11.801C15.629,-12.621 15.1,-13.279 14.397,-13.773C13.695,-14.265 12.827,-14.619 11.793,-14.832C10.76,-15.045 9.56,-15.152 8.194,-15.152L0,-15.152L0,-2.033ZM-6.431,-20.695L8.194,-20.695C9.768,-20.695 11.22,-20.627 12.547,-20.492C13.875,-20.357 15.084,-20.105 16.175,-19.738C17.266,-19.369 18.238,-18.867 19.092,-18.228C19.944,-17.59 20.686,-16.767 21.311,-15.76C22.523,-13.806 23.133,-11.545 23.133,-8.969C23.133,-6.918 22.81,-5.113 22.164,-3.556C21.52,-2 20.566,-0.693 19.304,0.362C18.044,1.416 16.488,2.215 14.64,2.758C12.789,3.299 10.66,3.571 8.251,3.571L0,3.571L0,18.662L-6.431,18.662L-6.431,-20.695Z" style="fill:rgb(35,31,32);fill-rule:nonzero;"/>
    </g>
    <g transform="matrix(4.16667,0,0,4.16667,1592.81,241.802)">
        <path d="M0,-3.889L10.016,-3.889C11.438,-3.889 12.66,-4.006 13.686,-4.237C14.709,-4.469 15.549,-4.838 16.203,-5.34C16.858,-5.844 17.342,-6.496 17.654,-7.299C17.969,-8.104 18.123,-9.075 18.123,-10.217C18.123,-12.268 17.522,-13.801 16.318,-14.817C15.113,-15.834 13.238,-16.34 10.697,-16.34L0,-16.34L0,-3.889ZM26.318,17.734L19.348,17.734L15.848,7.691C15.147,5.699 14.191,4.199 12.988,3.193C11.783,2.187 10.166,1.683 8.137,1.683L0,1.683L0,17.734L-6.431,17.734L-6.431,-21.623L10.697,-21.623C12.746,-21.623 14.633,-21.44 16.359,-21.071C18.086,-20.705 19.57,-20.09 20.812,-19.229C22.055,-18.368 23.023,-17.227 23.715,-15.803C24.406,-14.381 24.754,-12.618 24.754,-10.508C24.754,-7.741 24.018,-5.485 22.547,-3.744C21.078,-2.004 18.996,-0.871 16.303,-0.348C17.707,0.213 18.897,1.117 19.875,2.365C20.852,3.613 21.699,5.234 22.42,7.228L26.318,17.734Z" style="fill:rgb(35,31,32);fill-rule:nonzero;"/>
    </g>
    <g transform="matrix(4.16667,0,0,4.16667,1797.91,172.148)">
        <path d="M0,29.574C1.803,29.574 3.438,29.226 4.908,28.529C6.379,27.834 7.635,26.838 8.68,25.539C9.721,24.244 10.527,22.687 11.096,20.867C11.666,19.049 11.949,17.017 11.949,14.771C11.949,12.566 11.67,10.558 11.111,8.75C10.551,6.941 9.76,5.383 8.736,4.076C7.711,2.771 6.469,1.76 5.008,1.043C3.549,0.328 1.916,-0.03 0.113,-0.03C-1.687,-0.03 -3.33,0.324 -4.809,1.029C-6.287,1.736 -7.555,2.736 -8.605,4.033C-9.66,5.328 -10.471,6.888 -11.039,8.705C-11.607,10.525 -11.895,12.547 -11.895,14.771C-11.895,17.017 -11.604,19.049 -11.025,20.867C-10.447,22.687 -9.635,24.244 -8.592,25.539C-7.549,26.838 -6.297,27.834 -4.836,28.529C-3.375,29.226 -1.764,29.574 0,29.574M0.057,-5.545C2.789,-5.545 5.287,-5.057 7.555,-4.078C9.822,-3.102 11.766,-1.729 13.387,0.041C15.01,1.812 16.27,3.951 17.172,6.457C18.072,8.963 18.523,11.734 18.523,14.771C18.523,17.81 18.086,20.576 17.215,23.074C16.342,25.57 15.1,27.711 13.486,29.502C11.873,31.293 9.93,32.676 7.654,33.652C5.377,34.629 2.844,35.119 0.057,35.119C-2.73,35.119 -5.258,34.635 -7.525,33.668C-9.791,32.699 -11.732,31.326 -13.344,29.545C-14.957,27.765 -16.203,25.623 -17.086,23.117C-17.969,20.609 -18.408,17.83 -18.408,14.771C-18.408,11.734 -17.959,8.963 -17.057,6.457C-16.156,3.951 -14.891,1.812 -13.26,0.041C-11.627,-1.729 -9.684,-3.102 -7.428,-4.078C-5.168,-5.057 -2.674,-5.545 0.057,-5.545" style="fill:rgb(35,31,32);fill-rule:nonzero;"/>
    </g>
    <g transform="matrix(4.16667,0,0,4.16667,1972.3,149.044)">
        <path d="M0,40.664C-2.787,40.664 -5.305,40.189 -7.553,39.242C-9.801,38.293 -11.721,36.939 -13.314,35.178C-14.908,33.416 -16.137,31.279 -17,28.764C-17.863,26.248 -18.295,23.431 -18.295,20.316C-18.295,17.279 -17.863,14.508 -17,12.002C-16.137,9.496 -14.904,7.357 -13.301,5.586C-11.699,3.816 -9.76,2.443 -7.482,1.467C-5.207,0.488 -2.656,0 0.172,0C2.6,0 4.805,0.285 6.787,0.855C8.769,1.428 10.484,2.264 11.938,3.365C13.387,4.471 14.545,5.824 15.406,7.43C16.271,9.035 16.807,10.873 17.016,12.945L10.557,12.945C10.234,10.603 9.188,8.779 7.412,7.474C5.639,6.168 3.244,5.515 0.228,5.515C-1.574,5.515 -3.211,5.847 -4.68,6.515C-6.15,7.183 -7.412,8.146 -8.463,9.404C-9.518,10.66 -10.334,12.209 -10.912,14.047C-11.49,15.887 -11.779,17.977 -11.779,20.316C-11.779,22.678 -11.484,24.777 -10.897,26.615C-10.311,28.455 -9.484,30.002 -8.422,31.26C-7.359,32.518 -6.078,33.474 -4.58,34.133C-3.082,34.791 -1.422,35.119 0.398,35.119C2.885,35.119 5.045,34.732 6.885,33.959C8.725,33.183 10.244,31.986 11.438,30.359L11.438,24.961L2.049,24.961L2.049,19.678L17.67,19.678L17.67,39.996L13.4,39.996L12.234,36.252C10.869,37.703 9.172,38.801 7.143,39.547C5.113,40.291 2.73,40.664 0,40.664" style="fill:rgb(35,31,32);fill-rule:nonzero;"/>
    </g>
    <g transform="matrix(4.16667,0,0,4.16667,2104.25,241.802)">
        <path d="M0,-3.889L10.016,-3.889C11.439,-3.889 12.662,-4.006 13.688,-4.237C14.711,-4.469 15.549,-4.838 16.205,-5.34C16.859,-5.844 17.342,-6.496 17.654,-7.299C17.967,-8.104 18.123,-9.075 18.123,-10.217C18.123,-12.268 17.521,-13.801 16.318,-14.817C15.113,-15.834 13.24,-16.34 10.697,-16.34L0,-16.34L0,-3.889ZM26.318,17.734L19.348,17.734L15.85,7.691C15.146,5.699 14.193,4.199 12.99,3.193C11.785,2.187 10.168,1.683 8.139,1.683L0,1.683L0,17.734L-6.43,17.734L-6.43,-21.623L10.697,-21.623C12.748,-21.623 14.635,-21.44 16.361,-21.071C18.086,-20.705 19.57,-20.09 20.814,-19.229C22.057,-18.368 23.023,-17.227 23.715,-15.803C24.408,-14.381 24.754,-12.618 24.754,-10.508C24.754,-7.741 24.02,-5.485 22.549,-3.744C21.078,-2.004 18.996,-0.871 16.303,-0.348C17.707,0.213 18.898,1.117 19.875,2.365C20.852,3.613 21.699,5.234 22.422,7.228L26.318,17.734Z" style="fill:rgb(35,31,32);fill-rule:nonzero;"/>
    </g>
    <g transform="matrix(4.16667,0,0,4.16667,2272.24,218.826)">
        <path d="M0,7.139L11.777,7.139L6.004,-9.144L5.463,-9.144L0,7.139ZM24.127,23.248L17.412,23.248L13.459,12.364L-1.764,12.364L-5.492,23.248L-12.008,23.248L2.219,-16.109L9.275,-16.109L24.127,23.248Z" style="fill:rgb(35,31,32);fill-rule:nonzero;"/>
    </g>
    <g transform="matrix(4.16667,0,0,4.16667,2549.06,151.707)">
        <path d="M0,39.357L-6.004,39.357L-6.004,20.23C-6.004,17.986 -5.996,15.755 -5.977,13.541C-5.959,11.324 -5.949,9.113 -5.949,6.908L-16.135,39.357L-21.91,39.357L-32.295,6.908C-32.258,9.113 -32.227,11.324 -32.209,13.541C-32.191,15.755 -32.182,17.986 -32.182,20.23L-32.182,39.357L-38.242,39.357L-38.242,0L-28.91,0L-19.008,31.201L-9.391,0L0,0L0,39.357Z" style="fill:rgb(35,31,32);fill-rule:nonzero;"/>
    </g>
    <g transform="matrix(4.16667,0,0,4.16667,2742.54,151.707)">
        <path d="M0,39.357L-6.004,39.357L-6.004,20.23C-6.004,17.986 -5.992,15.755 -5.975,13.541C-5.957,11.324 -5.945,9.113 -5.945,6.908L-16.133,39.357L-21.908,39.357L-32.295,6.908C-32.256,9.113 -32.229,11.324 -32.207,13.541C-32.189,15.755 -32.18,17.986 -32.18,20.23L-32.18,39.357L-38.24,39.357L-38.24,0L-28.908,0L-19.008,31.201L-9.391,0L0,0L0,39.357Z" style="fill:rgb(35,31,32);fill-rule:nonzero;"/>
    </g>
    <g transform="matrix(4.16667,0,0,4.16667,2898.55,151.707)">
        <path d="M0,39.357L-29.191,39.357L-29.191,0L-0.91,0L-0.91,5.66L-22.764,5.66L-22.764,16.283L-2.305,16.283L-2.305,22L-22.764,22L-22.764,33.697L0,33.697L0,39.357Z" style="fill:rgb(35,31,32);fill-rule:nonzero;"/>
    </g>
    <g transform="matrix(4.16667,0,0,4.16667,2953.32,241.802)">
        <path d="M0,-3.889L10.016,-3.889C11.44,-3.889 12.662,-4.006 13.688,-4.237C14.711,-4.469 15.551,-4.838 16.205,-5.34C16.859,-5.844 17.344,-6.496 17.656,-7.299C17.969,-8.104 18.125,-9.075 18.125,-10.217C18.125,-12.268 17.523,-13.801 16.318,-14.817C15.113,-15.834 13.24,-16.34 10.699,-16.34L0,-16.34L0,-3.889ZM26.32,17.734L19.35,17.734L15.85,7.691C15.147,5.699 14.193,4.199 12.99,3.193C11.785,2.187 10.168,1.683 8.139,1.683L0,1.683L0,17.734L-6.43,17.734L-6.43,-21.623L10.699,-21.623C12.748,-21.623 14.635,-21.44 16.361,-21.071C18.088,-20.705 19.572,-20.09 20.812,-19.229C22.057,-18.368 23.023,-17.227 23.717,-15.803C24.408,-14.381 24.756,-12.618 24.756,-10.508C24.756,-7.741 24.022,-5.485 22.551,-3.744C21.078,-2.004 18.998,-0.871 16.305,-0.348C17.709,0.213 18.898,1.117 19.875,2.365C20.852,3.613 21.701,5.234 22.422,7.228L26.32,17.734Z" style="fill:rgb(35,31,32);fill-rule:nonzero;"/>
    </g>
    <g transform="matrix(4.16667,0,0,4.16667,-182.942,-252.675)">
        <rect x="208.929" y="89.563" width="6.075" height="135.637" style="fill:rgb(3,4,5);"/>
    </g>
    <g transform="matrix(4.16667,0,0,4.16667,941.885,292.257)">
        <path d="M0,-27.92L-12.179,-27.92L-12.179,5.719L-18.58,5.719L-18.58,-27.92L-30.701,-27.92L-30.701,-33.639L0,-33.639L0,-27.92Z" style="fill:rgb(35,31,32);fill-rule:nonzero;"/>
    </g>
    <g transform="matrix(4.16667,0,0,4.16667,1092.68,152.097)">
        <path d="M0,39.357L-6.402,39.357L-6.402,21.42L-24.526,21.42L-24.526,39.357L-30.956,39.357L-30.956,0L-24.526,0L-24.526,15.759L-6.402,15.759L-6.402,0L0,0L0,39.357Z" style="fill:rgb(35,31,32);fill-rule:nonzero;"/>
    </g>
    <g transform="matrix(4.16667,0,0,4.16667,1159.89,219.217)">
        <path d="M0,7.139L11.78,7.139L6.004,-9.144L5.463,-9.144L0,7.139ZM24.128,23.248L17.413,23.248L13.458,12.364L-1.764,12.364L-5.491,23.248L-12.006,23.248L2.22,-16.109L9.276,-16.109L24.128,23.248Z" style="fill:rgb(35,31,32);fill-rule:nonzero;"/>
    </g>
    <g transform="matrix(-4.16667,0,0,4.16667,2769.36,-590.658)">
        <rect x="351.075" y="178.261" width="6.402" height="39.357" style="fill:rgb(35,31,32);"/>
    </g>
    <g transform="matrix(4.16667,0,0,4.16667,957.813,481.726)">
        <path d="M0,37.205L-3.201,37.205L-3.201,20.844C-6.046,20.273 -9.176,19.918 -11.595,19.918C-17.286,19.918 -21.554,21.98 -21.554,28.17C-21.554,32.367 -18.566,34.715 -14.867,34.715C-13.231,34.715 -11.239,34.287 -9.674,33.506L-9.674,36.494C-11.382,37.348 -13.302,37.703 -15.152,37.703C-20.131,37.703 -24.755,34.43 -24.755,28.242C-24.755,19.635 -18.495,16.932 -11.666,16.932C-8.892,16.932 -5.904,17.357 -3.201,17.926L-3.201,12.236C-3.201,6.117 -6.971,4.127 -11.88,4.127C-15.294,4.127 -19.634,5.264 -22.621,6.475L-23.119,3.486C-19.989,2.135 -15.721,1.139 -11.88,1.139C-8.536,1.139 -5.406,1.922 -3.201,3.842C-2.988,3.273 -2.917,3.059 -2.774,2.49L-2.063,-0.498L1.138,-0.498L0.356,2.846C0,4.482 -0.427,5.406 -1.352,6.117C-0.498,7.684 0,9.674 0,12.094L0,37.205Z" style="fill:rgb(35,31,32);fill-rule:nonzero;"/>
    </g>
    <g transform="matrix(4.16667,0,0,4.16667,1003.45,490.622)">
        <path d="M0,35.07L-2.703,35.07L-2.703,-0.498L0.498,-0.498L0.498,25.254C4.553,29.664 8.75,32.58 13.231,32.58C17.001,32.58 18.566,30.445 18.566,26.177L18.566,-0.498L21.768,-0.498L21.768,26.32C21.768,32.935 18.069,35.568 13.445,35.568C8.607,35.568 4.126,32.65 0.498,28.455L0,35.07Z" style="fill:rgb(35,31,32);fill-rule:nonzero;"/>
    </g>
    <g transform="matrix(4.16667,0,0,4.16667,1186.92,486.472)">
        <path d="M0,36.066L-3.201,36.066L-3.201,10.742C-3.201,5.193 -6.474,2.988 -10.884,2.988C-12.734,2.988 -14.868,3.414 -16.931,4.125L-16.931,1.279C-14.726,0.425 -12.591,0 -10.6,0C-4.126,0 0,3.699 0,10.599L0,36.066Z" style="fill:rgb(35,31,32);fill-rule:nonzero;"/>
    </g>
    <g transform="matrix(4.16667,0,0,4.16667,1228.7,541.01)">
        <path d="M0,9.887C-2.134,7.682 -3.557,4.979 -3.557,1.067L-3.557,-1.281C-3.557,-9.39 2.917,-13.09 9.39,-13.09C15.863,-13.09 22.337,-9.39 22.337,-1.281L22.337,22.977L19.136,22.977L19.136,-1.281C19.136,-7.398 14.228,-10.101 9.39,-10.101C4.482,-10.101 -0.355,-7.398 -0.355,-1.281L-0.355,0.854C-0.355,3.77 0.214,5.477 1.352,6.899C2.561,5.334 4.339,4.623 7.043,4.623L11.453,4.623L11.453,7.612L7.54,7.612C4.624,7.612 3.628,8.393 2.987,11.311L0.427,22.977L-2.846,22.977L0,9.887Z" style="fill:rgb(35,31,32);fill-rule:nonzero;"/>
    </g>
    <g transform="matrix(4.16667,0,0,4.16667,1367.41,490.622)">
        <path d="M0,35.07L-2.703,35.07L-2.703,-0.498L0.498,-0.498L0.498,25.254C4.553,29.664 8.75,32.58 13.231,32.58C17.002,32.58 18.566,30.445 18.566,26.177L18.566,-0.498L21.767,-0.498L21.767,26.32C21.767,32.935 18.068,35.568 13.444,35.568C8.607,35.568 4.126,32.65 0.498,28.455L0,35.07Z" style="fill:rgb(35,31,32);fill-rule:nonzero;"/>
    </g>
    <g transform="matrix(4.16667,0,0,4.16667,1514.71,407.325)">
        <path d="M0,49.655C0,51.362 0.569,52.073 2.49,52.073L4.197,52.073L4.197,55.061L2.49,55.061C-1.423,55.061 -3.201,52.999 -3.201,49.868L-3.201,23.05C-3.201,16.505 -7.469,11.739 -7.469,6.12L-7.469,4.055C-7.469,-2.845 -3.059,-5.406 2.917,-5.406L10.457,-5.406L10.457,-2.417L2.917,-2.417C-1.423,-2.417 -4.268,-0.568 -4.268,4.198L-4.268,6.12C-4.268,11.311 0,16.007 0,23.05L0,49.655Z" style="fill:rgb(35,31,32);fill-rule:nonzero;"/>
    </g>
    <g transform="matrix(4.16667,0,0,4.16667,1557.98,576.575)">
        <path d="M0,-21.127L3.202,-21.127L3.202,4.908C3.202,10.031 7.398,11.951 12.094,11.951C15.58,11.951 19.35,10.885 21.767,9.248L21.767,-36.066L24.969,-36.066L24.969,11.027C21.767,13.373 16.859,14.939 12.094,14.939C5.904,14.939 0,12.236 0,4.98L0,-21.127Z" style="fill:rgb(35,31,32);fill-rule:nonzero;"/>
    </g>
    <g transform="matrix(4.16667,0,0,4.16667,1774.95,621.039)">
        <path d="M0,-28.029C-2.135,-28.597 -5.549,-29.308 -8.965,-29.308C-13.375,-29.308 -17.5,-28.029 -17.5,-23.832C-17.5,-15.437 2.133,-17.715 2.133,-5.976C2.133,1.635 -2.918,4.268 -9.391,4.268C-12.664,4.268 -16.719,3.485 -19.705,2.631L-19.279,-0.427C-16.221,0.496 -12.592,1.28 -9.248,1.28C-4.695,1.28 -1.068,-0.357 -1.068,-5.976C-1.068,-15.011 -20.701,-12.521 -20.701,-23.832C-20.701,-30.234 -14.939,-32.297 -9.105,-32.297C-5.621,-32.297 -2.277,-31.586 0.426,-30.802L0,-28.029Z" style="fill:rgb(35,31,32);fill-rule:nonzero;"/>
    </g>
    <g transform="matrix(4.16667,0,0,4.16667,1872.45,511.071)">
        <path d="M0,24.756C0,26.463 0.568,27.174 2.49,27.174L4.197,27.174L4.197,30.162L2.49,30.162C-1.422,30.162 -3.201,28.1 -3.201,24.969L-3.201,-5.406L0,-5.406L0,24.756ZM-11.596,24.756C-11.596,26.463 -11.025,27.174 -9.105,27.174L-7.398,27.174L-7.398,30.162L-9.105,30.162C-13.018,30.162 -14.797,28.1 -14.797,24.969L-14.797,-5.406L-11.596,-5.406L-11.596,24.756Z" style="fill:rgb(35,31,32);fill-rule:nonzero;"/>
    </g>
    <g transform="matrix(4.16667,0,0,4.16667,2015.02,486.472)">
        <path d="M0,36.066L-3.201,36.066L-3.201,11.879C-3.201,5.121 -6.9,2.988 -12.234,2.988C-15.721,2.988 -19.49,4.054 -22.478,5.336L-21.34,11.951L-21.34,36.066L-24.541,36.066L-24.541,11.951L-25.965,3.769C-21.412,1.707 -17.072,0 -12.234,0C-5.193,0 0,2.988 0,11.879L0,36.066Z" style="fill:rgb(35,31,32);fill-rule:nonzero;"/>
    </g>
    <g transform="matrix(4.16667,0,0,4.16667,2127.95,621.039)">
        <path d="M0,-28.029C-2.135,-28.597 -5.549,-29.308 -8.965,-29.308C-13.375,-29.308 -17.5,-28.029 -17.5,-23.832C-17.5,-15.437 2.133,-17.715 2.133,-5.976C2.133,1.635 -2.918,4.268 -9.391,4.268C-12.664,4.268 -16.719,3.485 -19.705,2.631L-19.279,-0.427C-16.221,0.496 -12.592,1.28 -9.248,1.28C-4.695,1.28 -1.068,-0.357 -1.068,-5.976C-1.068,-15.011 -20.701,-12.521 -20.701,-23.832C-20.701,-30.234 -14.94,-32.297 -9.105,-32.297C-5.621,-32.297 -2.277,-31.586 0.426,-30.802L0,-28.029Z" style="fill:rgb(35,31,32);fill-rule:nonzero;"/>
    </g>
    <g transform="matrix(4.16667,0,0,4.16667,2175.07,490.622)">
        <path d="M0,35.07L-2.703,35.07L-2.703,-0.498L0.498,-0.498L0.498,25.254C4.553,29.664 8.75,32.58 13.23,32.58C17.002,32.58 18.566,30.445 18.566,26.177L18.566,-0.498L21.768,-0.498L21.768,26.32C21.768,32.935 18.068,35.568 13.443,35.568C8.607,35.568 4.125,32.65 0.498,28.455L0,35.07Z" style="fill:rgb(35,31,32);fill-rule:nonzero;"/>
    </g>
    <g transform="matrix(4.16667,0,0,4.16667,2313.48,511.071)">
        <path d="M0,24.756C0,26.463 0.568,27.174 2.488,27.174L4.197,27.174L4.197,30.162L2.488,30.162C-1.424,30.162 -3.201,28.1 -3.201,24.969L-3.201,-5.406L0,-5.406L0,24.756Z" style="fill:rgb(35,31,32);fill-rule:nonzero;"/>
    </g>
    <g transform="matrix(4.16667,0,0,4.16667,2365.05,490.622)">
        <path d="M0,35.07L-2.703,35.07L-2.703,-0.498L0.498,-0.498L0.498,25.254C4.553,29.664 8.75,32.58 13.23,32.58C17.002,32.58 18.566,30.445 18.566,26.177L18.566,-0.498L21.768,-0.498L21.768,26.32C21.768,32.935 18.068,35.568 13.443,35.568C8.607,35.568 4.125,32.65 0.498,28.455L0,35.07Z" style="fill:rgb(35,31,32);fill-rule:nonzero;"/>
    </g>
    <g transform="matrix(4.16667,0,0,4.16667,2484.78,539.824)">
        <path d="M0,10.955C0,6.26 2.277,3.414 7.541,3.414L12.805,3.414L12.805,6.402L7.684,6.402C4.41,6.402 3.201,8.037 3.201,11.025L3.201,18.211C5.478,19.633 9.248,20.771 12.875,20.771C17.57,20.771 21.91,19.064 21.91,13.728L21.91,-1.352C21.91,-7.754 17.855,-9.816 13.018,-9.816C9.248,-9.816 5.123,-8.537 1.85,-7.113L1.281,-9.816C4.553,-11.383 8.963,-12.805 13.018,-12.805C19.42,-12.805 25.111,-9.816 25.111,-1.494L25.111,13.801C25.111,21.057 19.277,23.76 12.875,23.76C8.252,23.76 3.414,22.266 0,19.918L0,10.955Z" style="fill:rgb(35,31,32);fill-rule:nonzero;"/>
    </g>
    <g transform="matrix(4.16667,0,0,4.16667,2702.34,621.039)">
        <path d="M0,-28.029C-2.135,-28.597 -5.549,-29.308 -8.963,-29.308C-13.373,-29.308 -17.5,-28.029 -17.5,-23.832C-17.5,-15.437 2.135,-17.715 2.135,-5.976C2.135,1.635 -2.916,4.268 -9.391,4.268C-12.662,4.268 -16.717,3.485 -19.705,2.631L-19.277,-0.427C-16.219,0.496 -12.592,1.28 -9.248,1.28C-4.695,1.28 -1.066,-0.357 -1.066,-5.976C-1.066,-15.011 -20.701,-12.521 -20.701,-23.832C-20.701,-30.234 -14.94,-32.297 -9.106,-32.297C-5.619,-32.297 -2.275,-31.586 0.428,-30.802L0,-28.029Z" style="fill:rgb(35,31,32);fill-rule:nonzero;"/>
    </g>
    <g transform="matrix(4.16667,0,0,4.16667,2661.72,427.779)">
        <path d="M0,8.537L-2.631,8.537C-2.986,7.115 -3.129,5.904 -3.129,4.838C-3.129,1.424 -1.707,0 1.779,0L14.228,0L13.73,2.988L1.992,2.988C0.498,2.988 0,3.557 0,4.98L0,8.537Z" style="fill:rgb(35,31,32);fill-rule:nonzero;"/>
    </g>
    <g transform="matrix(4.16667,0,0,4.16667,2750.05,527.672)">
        <path d="M0,-8.111C0,-17.216 5.619,-20.916 5.619,-26.463L5.619,-28.312C5.619,-30.377 4.908,-31.3 2.703,-31.3L-8.537,-31.3L-8.537,-34.289L2.703,-34.289C6.687,-34.289 8.82,-32.226 8.82,-28.455L8.82,-26.463C8.82,-20.203 3.201,-16.22 3.201,-8.039L3.201,20.772C3.201,22.479 3.769,23.19 5.691,23.19L7.398,23.19L7.398,26.178L5.691,26.178C1.779,26.178 0,24.116 0,20.985L0,-8.111Z" style="fill:rgb(35,31,32);fill-rule:nonzero;"/>
    </g>
    <g transform="matrix(4.16667,0,0,4.16667,2820,593.174)">
        <path d="M0,-15.152C2.418,-20.132 6.828,-25.609 12.875,-25.609C17.215,-25.609 21.27,-23.334 21.27,-16.789L21.27,10.457L18.068,10.457L18.068,-16.789C18.068,-21.199 15.65,-22.621 12.732,-22.621C7.754,-22.621 2.916,-17.002 0,-10.742L0,10.457L-3.201,10.457L-3.201,-25.111L0,-25.111L0,-15.152Z" style="fill:rgb(35,31,32);fill-rule:nonzero;"/>
    </g>
    <g transform="matrix(4.16667,0,0,4.16667,3045.25,529.749)">
        <path d="M0,16.289C0,23.758 -5.689,26.178 -12.307,26.178C-17.002,26.178 -21.768,24.754 -25.111,23.26L-25.111,14.867C-25.111,11.096 -24.756,8.18 -20.629,6.33C-22.977,5.334 -25.111,2.773 -25.111,-0.783L-25.111,-2.42C-25.111,-6.9 -22.764,-9.889 -17.996,-9.889L-12.662,-9.889L-12.662,-6.9L-17.641,-6.9C-20.699,-6.9 -21.91,-5.549 -21.91,-2.633L-21.91,-0.641C-21.91,3.129 -19.705,4.908 -16.076,4.908L-11.594,4.908L-11.594,7.894L-16.076,7.894C-20.559,7.894 -21.91,10.1 -21.91,14.439L-21.91,21.34C-19.633,22.266 -15.863,23.189 -12.307,23.189C-7.539,23.189 -3.201,21.482 -3.201,15.934L-3.201,-9.889L0,-9.889L0,16.289Z" style="fill:rgb(35,31,32);fill-rule:nonzero;"/>
    </g>
</svg>
