<?xml version="1.0" encoding="UTF-8" standalone="no"?>
<!DOCTYPE svg PUBLIC "-//W3C//DTD SVG 1.1//EN" "http://www.w3.org/Graphics/SVG/1.1/DTD/svg11.dtd">
<svg width="100%" height="100%" viewBox="0 0 657 198" version="1.1" xmlns="http://www.w3.org/2000/svg" xmlns:xlink="http://www.w3.org/1999/xlink" xml:space="preserve" xmlns:serif="http://www.serif.com/" style="fill-rule:evenodd;clip-rule:evenodd;stroke-linejoin:round;stroke-miterlimit:2;">
    <g id="Layer-1" serif:id="Layer 1" transform="matrix(1,0,0,1,-171.565,-151.054)">
        <g transform="matrix(1,0,0,1,226.078,297.285)">
            <path d="M0,-104.544L-36.047,-137.888L102.115,-137.888L73.068,-104.544L0,-104.544ZM78.135,-97.661L114.426,-139.32C115.5,-140.553 115.755,-142.299 115.078,-143.788C114.4,-145.276 112.917,-146.231 111.281,-146.231L-50.341,-146.231C-52.194,-146.231 -53.826,-145.008 -54.345,-143.228C-54.865,-141.449 -54.148,-139.54 -52.584,-138.543L-7.038,-96.856C-6.368,-96.428 -5.589,-96.201 -4.794,-96.201L65.799,-96.201L-48.299,34.776C-49.812,36.513 -49.631,39.147 -47.894,40.66C-47.104,41.349 -46.128,41.687 -45.156,41.687C-43.992,41.687 -42.833,41.202 -42.009,40.255L78.111,-97.633C78.119,-97.642 78.127,-97.651 78.135,-97.661" style="fill-rule:nonzero;"/>
        </g>
        <g transform="matrix(1,0,0,1,350.081,202.093)">
            <path d="M0,104.544L36.047,137.888L-102.115,137.888L-73.068,104.544L0,104.544ZM-78.135,97.661L-114.426,139.32C-115.5,140.553 -115.755,142.299 -115.078,143.788C-114.4,145.276 -112.917,146.231 -111.281,146.231L50.341,146.231C52.194,146.231 53.826,145.008 54.345,143.228C54.865,141.449 54.148,139.54 52.585,138.543L7.038,96.856C6.368,96.428 5.589,96.201 4.794,96.201L-65.799,96.201L48.299,-34.776C49.812,-36.513 49.631,-39.147 47.894,-40.66C47.104,-41.349 46.128,-41.687 45.156,-41.687C43.992,-41.687 42.833,-41.202 42.009,-40.255L-78.111,97.633C-78.119,97.642 -78.127,97.651 -78.135,97.661" style="fill-rule:nonzero;"/>
        </g>
        <g transform="matrix(1,0,0,1,478.087,200.989)">
            <path d="M0,51.341L34.746,51.341L34.746,59.899L-11.151,59.899L-11.151,52.638L23.467,0.129L-10.113,0.129L-10.113,-8.558L34.746,-8.558L34.746,-1.426L0,51.341Z" style="fill-rule:nonzero;"/>
        </g>
        <g transform="matrix(1,0,0,1,0,-46.682)">
            <rect x="541.225" y="239.113" width="9.204" height="68.456"/>
        </g>
        <g transform="matrix(1,0,0,1,647.927,226.658)">
            <path d="M0,0.001C0,4.842 -0.865,9.4 -2.592,13.679C-4.321,17.958 -6.722,21.675 -9.787,24.829C-12.857,27.985 -16.509,30.491 -20.744,32.349C-24.979,34.208 -29.604,35.136 -34.617,35.136C-39.542,35.136 -44.19,34.229 -48.553,32.413C-52.919,30.599 -56.723,28.093 -59.963,24.894C-63.205,21.697 -65.778,17.958 -67.678,13.679C-69.58,9.4 -70.531,4.842 -70.531,0.001C-70.531,-4.839 -69.58,-9.399 -67.678,-13.677C-65.778,-17.956 -63.205,-21.671 -59.963,-24.828C-56.723,-27.982 -52.919,-30.487 -48.553,-32.347C-44.19,-34.205 -39.542,-35.135 -34.617,-35.135C-28.394,-35.135 -22.646,-33.664 -17.372,-30.726C-12.102,-27.787 -7.477,-23.466 -3.501,-17.761L-10.761,-12.316C-17.157,-21.564 -25.11,-26.189 -34.617,-26.189C-38.333,-26.189 -41.813,-25.496 -45.052,-24.115C-48.295,-22.73 -51.126,-20.873 -53.546,-18.539C-55.965,-16.205 -57.888,-13.439 -59.315,-10.242C-60.741,-7.043 -61.454,-3.629 -61.454,0.001C-61.454,3.631 -60.741,7.047 -59.315,10.244C-57.888,13.442 -55.965,16.207 -53.546,18.541C-51.126,20.875 -48.295,22.734 -45.052,24.116C-41.813,25.5 -38.333,26.19 -34.617,26.19C-31.419,26.19 -28.394,25.652 -25.541,24.57C-22.688,23.49 -20.159,21.977 -17.957,20.032C-15.752,18.087 -13.917,15.798 -12.447,13.161C-10.978,10.525 -9.983,7.651 -9.463,4.539L-37.34,4.539L-37.34,-4.537L-0.128,-4.537C-0.044,-2.981 0,-1.944 0,-1.425L0,0.001Z" style="fill-rule:nonzero;"/>
        </g>
        <g transform="matrix(1,0,0,1,739.463,192.431)">
            <path d="M0,68.456L-8.559,24.374L-8.946,20.355L-10.244,24.504L-27.746,68.456L-32.932,68.456L-50.565,24.633L-51.861,20.226L-52.38,24.504L-61.196,68.456L-70.141,68.456L-56.27,0L-51.084,0L-30.468,51.471L-9.855,0L-4.669,0L9.074,68.456L0,68.456Z" style="fill-rule:nonzero;"/>
        </g>
        <g transform="matrix(1,0,0,1,798.323,243.773)">
            <path d="M0,-34.228L-8.817,-12.706L8.557,-12.706L0,-34.228ZM20.483,17.114L12.057,-3.89L-12.188,-3.89L-20.616,17.114L-30.21,17.114L-2.594,-51.342L2.722,-51.342L30.079,17.114L20.483,17.114Z" style="fill-rule:nonzero;"/>
        </g>
        <g transform="matrix(1,0,0,1,489.547,291.701)">
            <path d="M0,23.96L-1.814,23.96L-8.893,6.717L-9.348,5.219L-9.756,6.717L-16.835,23.96L-18.649,23.96L-26.317,0L-23.05,0L-17.832,16.155L-17.424,17.879L-16.926,16.2L-10.118,0L-8.348,0L-1.633,16.064L-1.088,17.834L-0.635,16.019L4.448,0L7.715,0L0,23.96Z" style="fill-rule:nonzero;"/>
        </g>
        <g transform="matrix(1,0,0,1,538.466,303.681)">
            <path d="M0,-0.001C0,-1.271 -0.244,-2.466 -0.728,-3.585C-1.212,-4.704 -1.877,-5.679 -2.724,-6.513C-3.57,-7.344 -4.546,-8.009 -5.651,-8.509C-6.756,-9.008 -7.927,-9.258 -9.167,-9.258C-10.408,-9.258 -11.588,-9.008 -12.707,-8.509C-13.827,-8.009 -14.803,-7.344 -15.634,-6.513C-16.467,-5.679 -17.123,-4.704 -17.607,-3.585C-18.091,-2.466 -18.333,-1.271 -18.333,-0.001C-18.333,1.27 -18.091,2.466 -17.607,3.584C-17.123,4.704 -16.467,5.687 -15.634,6.534C-14.803,7.382 -13.827,8.054 -12.707,8.553C-11.588,9.052 -10.408,9.302 -9.167,9.302C-7.927,9.302 -6.756,9.052 -5.651,8.553C-4.546,8.054 -3.57,7.382 -2.724,6.534C-1.877,5.687 -1.212,4.704 -0.728,3.584C-0.244,2.466 0,1.27 0,-0.001M3.175,-0.001C3.175,1.694 2.851,3.289 2.201,4.786C1.548,6.284 0.656,7.586 -0.478,8.689C-1.612,9.794 -2.929,10.671 -4.424,11.321C-5.922,11.972 -7.505,12.297 -9.167,12.297C-10.862,12.297 -12.457,11.972 -13.955,11.321C-15.453,10.671 -16.762,9.794 -17.881,8.689C-19,7.586 -19.884,6.284 -20.534,4.786C-21.186,3.289 -21.51,1.694 -21.51,-0.001C-21.51,-1.664 -21.186,-3.245 -20.534,-4.742C-19.884,-6.24 -19,-7.549 -17.881,-8.668C-16.762,-9.786 -15.453,-10.672 -13.955,-11.322C-12.457,-11.972 -10.862,-12.298 -9.167,-12.298C-7.505,-12.298 -5.922,-11.972 -4.424,-11.322C-2.929,-10.672 -1.612,-9.786 -0.478,-8.668C0.656,-7.549 1.548,-6.24 2.201,-4.742C2.851,-3.245 3.175,-1.664 3.175,-0.001" style="fill-rule:nonzero;"/>
        </g>
        <g transform="matrix(1,0,0,1,573.271,308.943)">
            <path d="M0,-10.526C0,-11.222 -0.151,-11.865 -0.454,-12.455C-0.757,-13.045 -1.21,-13.476 -1.816,-13.748C-2.239,-13.96 -2.699,-14.089 -3.2,-14.134C-3.699,-14.179 -4.191,-14.203 -4.675,-14.203L-6.535,-14.203L-6.581,-6.851L-4.492,-6.851C-3.827,-6.851 -3.238,-6.903 -2.722,-7.009C-2.209,-7.116 -1.725,-7.365 -1.271,-7.758C-0.848,-8.091 -0.53,-8.507 -0.318,-9.006C-0.107,-9.506 0,-10.012 0,-10.526M1.134,6.717L-5.899,-3.629L-6.581,-3.629L-6.581,6.717L-9.712,6.717L-9.712,-17.243L-4.993,-17.243C-4.084,-17.243 -3.147,-17.182 -2.178,-17.061C-1.21,-16.94 -0.274,-16.562 0.635,-15.927C1.572,-15.261 2.23,-14.452 2.609,-13.499C2.987,-12.546 3.177,-11.54 3.177,-10.481C3.177,-8.576 2.661,-7.085 1.633,-6.011C0.604,-4.937 -0.743,-4.265 -2.405,-3.992L4.9,6.717L1.134,6.717Z" style="fill-rule:nonzero;"/>
        </g>
        <g transform="matrix(1,0,0,1,599.498,291.701)">
            <path d="M0,23.96L0,0L3.131,0L3.131,20.965L8.758,20.965L8.758,23.96L0,23.96Z" style="fill-rule:nonzero;"/>
        </g>
        <g transform="matrix(1,0,0,1,643.921,303.634)">
            <path d="M0,0.092C0,-1.27 -0.234,-2.509 -0.703,-3.63C-1.172,-4.748 -1.822,-5.694 -2.653,-6.466C-3.486,-7.237 -4.477,-7.834 -5.626,-8.258C-6.777,-8.681 -8.047,-8.894 -9.438,-8.894L-11.117,-8.894L-11.117,9.031L-9.438,9.031C-8.077,9.031 -6.815,8.82 -5.649,8.396C-4.485,7.972 -3.486,7.375 -2.653,6.604C-1.822,5.831 -1.172,4.894 -0.703,3.79C-0.234,2.686 0,1.453 0,0.092M3.177,0.092C3.177,1.937 2.859,3.594 2.224,5.06C1.588,6.528 0.711,7.776 -0.408,8.804C-1.527,9.833 -2.859,10.627 -4.401,11.187C-5.943,11.746 -7.608,12.026 -9.392,12.026L-14.247,12.026L-14.247,-11.934L-9.392,-11.934C-7.578,-11.934 -5.899,-11.654 -4.355,-11.094C-2.813,-10.534 -1.481,-9.739 -0.362,-8.712C0.757,-7.683 1.626,-6.421 2.247,-4.923C2.868,-3.426 3.177,-1.753 3.177,0.092" style="fill-rule:nonzero;"/>
        </g>
        <g transform="matrix(1,0,0,1,706.861,312.621)">
            <path d="M0,-17.88L0,3.04L-3.131,3.04L-3.131,-17.88L-8.893,-17.88L-8.893,-20.92L5.763,-20.92L5.763,-17.88L0,-17.88Z" style="fill-rule:nonzero;"/>
        </g>
        <g transform="matrix(1,0,0,1,733.951,291.701)">
            <path d="M0,23.96L0,0L12.343,0L12.343,3.04L3.131,3.04L3.131,9.439L12.07,9.439L12.07,12.479L3.131,12.479L3.131,20.965L12.343,20.965L12.343,23.96L0,23.96Z" style="fill-rule:nonzero;"/>
        </g>
        <g transform="matrix(1,0,0,1,787.587,294.015)">
            <path d="M0,19.331C-1.361,20.329 -2.638,21.017 -3.833,21.395C-5.03,21.774 -6.322,21.963 -7.713,21.963C-9.377,21.963 -10.959,21.638 -12.455,20.987C-13.953,20.337 -15.27,19.459 -16.404,18.355C-17.538,17.251 -18.438,15.957 -19.103,14.475C-19.77,12.993 -20.103,11.406 -20.103,9.711C-20.103,8.016 -19.77,6.421 -19.103,4.924C-18.438,3.426 -17.538,2.117 -16.404,0.998C-15.27,-0.12 -13.953,-1.006 -12.455,-1.656C-10.959,-2.306 -9.362,-2.632 -7.669,-2.632C-6.398,-2.632 -5.142,-2.443 -3.903,-2.065C-2.661,-1.687 -1.361,-0.983 0,0.045L-1.679,2.541C-2.889,1.633 -3.985,1.051 -4.969,0.794C-5.952,0.537 -6.882,0.408 -7.759,0.408C-9,0.408 -10.181,0.665 -11.298,1.18C-12.419,1.694 -13.393,2.382 -14.226,3.245C-15.057,4.106 -15.716,5.105 -16.2,6.24C-16.684,7.374 -16.926,8.576 -16.926,9.847C-16.926,11.027 -16.675,12.168 -16.177,13.273C-15.678,14.377 -15.005,15.345 -14.157,16.177C-13.311,17.009 -12.335,17.683 -11.231,18.196C-10.126,18.711 -8.969,18.968 -7.759,18.968C-6.882,18.968 -5.952,18.831 -4.969,18.559C-3.985,18.287 -2.889,17.697 -1.679,16.79L0,19.331Z" style="fill-rule:nonzero;"/>
        </g>
        <g transform="matrix(1,0,0,1,824.298,291.701)">
            <path d="M0,23.96L0,12.524L-11.708,12.524L-11.708,23.96L-14.839,23.96L-14.839,0L-11.708,0L-11.708,9.439L0,9.439L0,0L3.131,0L3.131,23.96L0,23.96Z" style="fill-rule:nonzero;"/>
        </g>
    </g>
</svg>
